<?xml version="1.0" standalone="no"?>
<!DOCTYPE svg PUBLIC "-//W3C//DTD SVG 20010904//EN"
 "http://www.w3.org/TR/2001/REC-SVG-20010904/DTD/svg10.dtd">
<svg version="1.0" xmlns="http://www.w3.org/2000/svg"
 width="1280.000000pt" height="1280.000000pt" viewBox="0 0 1280.000000 1280.000000"
 preserveAspectRatio="xMidYMid meet">
<metadata>
Created by potrace 1.14, written by Peter Selinger 2001-2017
</metadata>
<g transform="translate(0.000000,1280.000000) scale(0.100000,-0.100000)"
fill="#000000" stroke="none">
<path d="M7857 12794 c-1 -1 -49 -5 -107 -8 -58 -4 -123 -9 -145 -11 -22 -2
-67 -6 -100 -9 -33 -3 -69 -8 -80 -10 -11 -2 -51 -7 -88 -11 -37 -3 -78 -8
-90 -11 -12 -2 -40 -6 -62 -9 -35 -5 -57 -8 -115 -19 -8 -1 -35 -6 -60 -10
-65 -10 -85 -14 -85 -16 0 -1 -11 -3 -25 -6 -14 -2 -36 -7 -50 -10 -14 -4 -32
-8 -40 -10 -8 -1 -28 -5 -45 -8 -16 -3 -39 -7 -50 -10 -34 -9 -109 -28 -125
-31 -60 -13 -455 -131 -510 -152 -8 -3 -19 -7 -25 -9 -17 -4 -118 -42 -150
-55 -16 -7 -32 -13 -35 -14 -10 -3 -45 -17 -65 -25 -11 -4 -45 -18 -75 -30
-30 -12 -73 -30 -95 -40 -22 -9 -56 -24 -75 -33 -19 -8 -84 -39 -145 -68 -60
-29 -112 -53 -115 -53 -3 -1 -9 -4 -15 -8 -5 -3 -53 -28 -105 -56 -52 -28
-115 -62 -140 -76 -25 -14 -52 -29 -60 -33 -8 -4 -43 -24 -78 -45 -34 -21 -67
-38 -72 -38 -6 0 -10 -3 -10 -8 0 -4 -17 -16 -37 -27 -21 -11 -40 -23 -43 -26
-3 -3 -16 -12 -29 -19 -14 -7 -30 -17 -35 -21 -6 -5 -56 -39 -111 -75 -55 -37
-109 -75 -121 -85 -11 -11 -25 -19 -31 -19 -6 0 -13 -3 -15 -8 -1 -4 -28 -25
-58 -47 -52 -38 -303 -237 -326 -259 -6 -6 -40 -36 -75 -66 -161 -140 -559
-535 -559 -556 0 -2 -13 -17 -28 -32 -16 -15 -50 -54 -77 -87 -26 -33 -53 -65
-59 -72 -14 -16 -16 -18 -106 -133 -42 -52 -82 -105 -90 -117 -8 -11 -48 -67
-87 -122 -40 -56 -73 -106 -73 -111 0 -4 -3 -10 -8 -12 -8 -3 -75 -104 -138
-208 -21 -36 -44 -71 -51 -78 -6 -6 -15 -22 -19 -35 -4 -12 -9 -24 -13 -27 -3
-3 -11 -15 -18 -26 -93 -168 -113 -206 -113 -214 0 -6 -4 -10 -10 -10 -5 0
-10 -9 -10 -20 0 -11 -4 -20 -10 -20 -5 0 -9 -3 -8 -7 0 -5 -34 -80 -76 -168
-94 -195 -110 -233 -106 -244 1 -2 -2 -7 -7 -10 -5 -3 -17 -28 -27 -56 -11
-27 -27 -68 -36 -90 -10 -22 -23 -56 -30 -75 -7 -19 -16 -44 -21 -55 -10 -21
-88 -250 -94 -275 -2 -8 -18 -60 -35 -115 -49 -160 -120 -439 -125 -491 -1
-11 -4 -24 -7 -30 -3 -5 -8 -25 -12 -44 -3 -19 -8 -44 -10 -55 -2 -11 -6 -36
-10 -55 -3 -19 -8 -46 -11 -60 -3 -13 -7 -42 -10 -65 -11 -73 -17 -107 -21
-129 -3 -11 -7 -43 -10 -71 -2 -27 -7 -66 -9 -85 -3 -19 -7 -62 -10 -95 -4
-33 -8 -78 -10 -100 -28 -291 -27 -862 1 -1122 3 -29 7 -72 9 -95 2 -24 4 -43
5 -43 1 0 3 -22 5 -50 2 -27 6 -63 10 -80 3 -16 8 -52 10 -80 5 -48 12 -90 15
-90 1 0 3 -13 5 -30 2 -16 6 -43 10 -60 18 -89 27 -143 28 -167 1 -16 6 -28
11 -28 4 0 6 -6 3 -14 -3 -8 -3 -17 1 -21 4 -4 8 -15 8 -26 1 -10 2 -20 4 -21
1 -2 3 -12 5 -23 2 -11 5 -29 8 -40 7 -28 38 -157 42 -175 2 -8 4 -17 6 -20 1
-3 3 -9 4 -15 2 -5 4 -12 5 -15 1 -3 3 -12 5 -20 10 -41 15 -60 34 -120 10
-36 29 -96 42 -135 12 -38 24 -73 25 -77 1 -5 3 -10 4 -13 3 -5 3 -6 15 -50 4
-16 12 -36 18 -42 5 -7 6 -13 2 -13 -4 0 -3 -6 3 -13 6 -6 11 -16 12 -22 4
-16 11 -38 20 -60 4 -11 13 -36 20 -55 7 -19 18 -48 25 -65 8 -16 23 -55 35
-85 12 -30 33 -79 46 -108 13 -29 24 -55 24 -58 0 -3 18 -41 40 -85 21 -43 37
-79 35 -79 -3 0 7 -19 22 -42 14 -24 26 -45 26 -48 -1 -9 122 -246 140 -268 5
-6 6 -12 1 -12 -5 0 -4 -4 2 -8 10 -7 74 -108 74 -118 0 -3 18 -32 40 -65 22
-33 40 -62 40 -65 0 -8 75 -119 83 -122 4 -2 7 -10 7 -17 0 -8 6 -20 13 -27 7
-7 36 -47 65 -88 28 -41 60 -86 71 -100 11 -14 21 -30 21 -37 0 -6 4 -13 8
-15 4 -1 30 -32 57 -68 27 -36 60 -79 74 -96 14 -17 33 -40 41 -50 24 -31 103
-126 127 -154 12 -14 31 -36 43 -50 145 -169 438 -462 610 -610 14 -12 36 -31
50 -43 14 -12 61 -51 105 -87 44 -35 82 -68 83 -72 2 -5 10 -8 18 -8 8 0 14
-3 14 -8 0 -4 39 -36 88 -72 48 -35 89 -68 90 -72 2 -4 10 -8 17 -8 7 0 15 -4
17 -8 4 -11 196 -142 207 -142 5 0 11 -4 13 -8 2 -4 39 -30 83 -57 44 -27 82
-52 85 -55 6 -6 29 -19 110 -63 30 -17 57 -33 60 -36 3 -3 34 -21 70 -40 36
-19 97 -52 135 -73 39 -21 81 -42 95 -48 53 -22 115 -55 122 -65 4 -5 8 -7 8
-3 0 4 22 -4 49 -17 27 -14 54 -25 60 -25 6 0 11 -5 11 -10 0 -6 3 -9 8 -8 4
1 23 -5 42 -14 51 -22 316 -127 380 -151 30 -11 64 -23 75 -28 17 -6 120 -41
135 -44 3 -1 12 -4 20 -7 46 -16 121 -40 132 -42 36 -7 75 -18 93 -26 11 -5
36 -12 55 -16 19 -4 40 -9 45 -10 100 -28 161 -41 168 -37 4 2 7 0 7 -5 0 -5
6 -9 13 -9 6 0 26 -4 42 -7 17 -4 41 -9 55 -11 14 -2 45 -9 70 -15 42 -10 58
-13 128 -24 15 -3 41 -7 57 -10 87 -17 102 -19 125 -22 14 -2 39 -5 55 -8 17
-3 53 -8 80 -12 28 -3 66 -7 85 -10 35 -5 69 -8 205 -20 137 -12 172 -14 359
-20 169 -5 188 -4 183 10 -4 9 -2 16 3 16 5 0 5 13 0 30 -5 17 -5 32 0 35 5 3
7 11 4 18 -8 22 -11 87 -3 87 4 0 3 16 -1 35 -4 19 -5 35 -1 35 7 0 6 109 -2
116 -3 3 -1 19 3 35 5 17 5 29 0 29 -6 0 -6 10 0 25 5 14 5 27 0 30 -5 3 -5
18 -1 33 5 15 5 36 1 46 -4 11 -4 36 0 56 4 20 4 45 0 56 -4 10 -4 31 1 46 4
15 4 30 -1 33 -5 3 -6 15 0 29 4 12 4 29 0 36 -5 8 -5 21 0 30 5 9 5 22 1 28
-4 7 -5 32 -1 56 3 24 3 51 0 62 -4 10 -4 31 1 46 4 15 4 30 -1 33 -5 3 -6 15
0 29 4 12 4 29 0 36 -5 8 -5 21 0 30 5 9 5 22 1 28 -4 7 -5 35 -1 62 4 27 3
55 -1 62 -4 6 -4 19 1 28 5 9 5 22 0 30 -4 7 -4 24 0 36 6 14 5 26 0 29 -5 3
-5 18 0 34 4 16 6 32 3 34 -7 8 -8 106 -1 113 4 3 2 18 -2 34 -4 16 -6 31 -3
34 4 3 5 29 4 58 -1 29 -1 62 -1 73 1 11 1 26 1 33 -1 6 -1 20 -1 30 0 9 0 26
0 37 -1 11 -1 26 -1 33 2 25 2 38 0 90 -1 29 0 55 4 58 3 3 1 19 -3 35 -5 16
-5 31 -1 33 8 5 6 53 -3 89 -5 21 -11 22 -101 23 -92 2 -216 9 -300 19 -22 2
-66 7 -97 9 -32 3 -61 7 -65 9 -5 3 -33 8 -63 11 -30 4 -73 10 -94 16 -22 5
-42 8 -45 8 -3 0 -8 1 -11 2 -7 2 -28 7 -70 14 -30 5 -117 26 -172 41 -10 3
-26 7 -37 9 -10 2 -51 14 -92 26 -41 12 -78 23 -84 25 -5 1 -17 5 -25 8 -8 3
-42 15 -75 26 -97 33 -187 67 -237 90 -74 33 -102 44 -110 43 -5 -1 -8 3 -8
10 0 6 -3 9 -6 5 -9 -9 -404 196 -412 215 -2 4 -8 8 -13 8 -12 0 -93 52 -97
63 -2 4 -8 7 -12 7 -19 0 -287 192 -345 248 -8 6 -16 12 -19 12 -3 0 -16 10
-29 23 -12 12 -52 47 -87 77 -82 70 -288 276 -360 359 -30 35 -65 74 -77 87
-13 13 -23 26 -23 30 0 4 -16 25 -36 48 -19 22 -38 46 -42 51 -4 6 -21 28 -38
50 -18 22 -66 92 -108 155 -42 63 -81 120 -86 127 -6 7 -10 14 -10 17 0 2 -19
35 -42 72 -81 133 -223 422 -219 447 1 4 -3 7 -9 7 -5 0 -10 8 -10 18 0 10 -4
22 -8 28 -5 5 -19 36 -31 69 -13 33 -27 69 -32 80 -22 52 -99 299 -123 395 -2
8 -14 53 -25 99 -12 46 -19 86 -16 89 2 3 0 13 -5 23 -6 10 -12 35 -15 56 -3
21 -7 49 -10 63 -3 14 -8 45 -11 69 -2 24 -6 46 -8 50 -4 6 -19 148 -20 189
-1 12 -3 22 -6 22 -13 0 -18 495 -6 635 3 44 9 105 11 135 6 76 15 149 22 185
3 17 7 41 9 55 6 49 14 96 24 145 6 28 12 59 14 70 14 69 35 155 39 162 3 5 8
20 10 34 3 13 10 44 17 69 7 25 12 45 11 45 -6 0 121 348 148 408 11 24 29 66
39 93 32 80 164 331 236 449 37 61 72 119 79 130 7 11 14 22 17 25 3 3 22 30
43 60 61 91 71 104 94 130 13 14 23 28 23 32 0 3 6 13 13 20 7 7 26 31 42 53
17 21 41 51 55 65 14 15 45 51 70 81 41 49 275 285 347 351 162 147 479 373
696 497 103 58 367 191 380 191 4 0 32 12 64 26 50 23 169 70 198 78 6 2 17 6
25 9 37 15 146 50 158 50 6 0 12 4 12 9 0 5 5 6 10 3 6 -3 16 -3 23 2 6 4 17
8 22 9 6 1 37 9 70 19 70 19 120 32 155 39 14 3 36 8 50 11 14 3 36 7 50 10
14 3 36 7 50 10 14 3 41 7 60 10 19 3 46 7 60 10 14 3 45 8 70 10 25 3 56 8
70 11 14 3 52 8 85 9 33 2 92 7 130 10 39 4 117 8 175 9 l105 2 5 52 c3 28 3
59 -1 69 -3 10 -3 30 2 45 4 15 4 30 -1 33 -5 3 -6 15 0 29 4 12 4 29 0 36 -5
8 -5 21 0 30 5 9 5 22 1 28 -4 7 -5 35 -1 62 4 27 3 55 -1 62 -4 6 -4 19 1 28
5 9 5 22 0 30 -4 7 -4 24 0 36 6 14 5 26 0 29 -5 3 -5 18 0 34 4 16 6 32 3 34
-7 8 -8 106 -1 113 4 3 2 18 -2 34 -4 16 -6 31 -3 34 4 3 5 29 4 58 -1 29 -1
62 -1 73 1 11 1 26 1 33 -1 6 -1 20 -1 30 0 9 0 26 0 37 -1 11 -1 26 -1 33 2
25 2 38 0 90 -1 29 0 55 4 58 3 3 1 18 -3 34 -4 16 -6 31 -3 34 8 7 7 105 0
113 -3 3 -2 16 3 29 6 14 6 26 0 29 -6 3 -6 15 0 30 5 14 5 27 0 30 -5 3 -5
18 -1 33 5 15 5 36 1 46 -4 11 -4 36 0 56 4 20 4 45 0 56 -4 10 -4 31 1 46 4
15 4 30 -1 33 -5 3 -6 15 0 29 4 12 4 29 0 36 -5 8 -5 21 0 30 5 9 5 22 1 28
-4 7 -5 32 -1 56 3 24 3 51 0 62 -4 10 -4 31 1 46 4 15 4 30 -1 33 -5 3 -6 15
0 29 4 12 5 29 0 36 -4 7 -4 26 0 41 5 16 5 29 1 29 -4 0 -7 10 -7 23 1 22 0
22 -147 22 -82 0 -149 -1 -150 -1z"/>
<path d="M8060 9283 c0 -4 -26 -9 -58 -10 -66 -2 -187 -10 -187 -13 0 -1 -15
-3 -34 -5 -55 -6 -173 -26 -216 -37 -22 -5 -49 -12 -60 -14 -17 -3 -48 -10
-87 -20 -5 -1 -9 -2 -10 -4 -2 -1 -10 -3 -18 -5 -8 -2 -24 -6 -35 -9 -11 -2
-54 -16 -95 -30 -41 -15 -82 -28 -91 -30 -14 -4 -30 -10 -134 -54 -68 -28
-319 -156 -333 -169 -7 -7 -20 -13 -28 -13 -8 0 -14 -4 -14 -8 0 -5 -12 -15
-27 -23 -53 -26 -176 -114 -287 -203 -114 -92 -346 -318 -346 -337 0 -5 -4 -8
-9 -4 -5 3 -12 -3 -15 -12 -5 -16 -29 -45 -100 -125 -9 -10 -16 -21 -16 -24 0
-3 -11 -20 -25 -38 -14 -17 -29 -36 -33 -41 -5 -6 -17 -24 -28 -40 -10 -17
-21 -32 -24 -35 -3 -3 -10 -14 -16 -25 -29 -52 -39 -70 -45 -75 -6 -5 -143
-260 -145 -270 -1 -7 -19 -50 -42 -103 -27 -59 -84 -217 -87 -237 0 -3 -5 -18
-12 -35 -6 -16 -15 -43 -19 -60 -10 -40 -11 -45 -13 -47 -2 -2 -4 -15 -6 -30
-2 -16 -6 -37 -10 -47 -9 -30 -18 -71 -36 -174 -14 -78 -16 -98 -34 -302 -2
-22 -4 -42 -5 -45 -1 -3 -1 -9 0 -15 6 -30 5 -65 -3 -65 -4 0 -5 -5 -2 -11 11
-16 12 -69 3 -75 -5 -3 -5 -10 -1 -17 11 -17 10 -57 -2 -57 -7 0 -7 -3 0 -8 6
-4 11 -32 12 -62 2 -77 21 -240 38 -332 3 -16 7 -38 9 -50 2 -13 11 -52 20
-88 9 -36 18 -74 20 -85 10 -45 85 -275 106 -322 6 -13 14 -33 19 -45 54 -128
144 -311 161 -328 3 -3 14 -21 24 -40 29 -52 144 -224 166 -248 11 -12 20 -24
20 -26 0 -6 4 -12 87 -111 90 -108 341 -355 360 -355 5 0 14 -9 21 -20 7 -11
19 -20 27 -20 8 0 15 -4 15 -9 0 -11 168 -130 285 -201 105 -65 262 -147 355
-185 36 -14 79 -32 95 -40 17 -7 68 -25 115 -40 47 -15 92 -30 100 -33 8 -3
20 -6 27 -8 6 -1 27 -7 45 -13 18 -6 44 -13 58 -15 14 -3 56 -12 93 -21 38 -8
83 -17 100 -20 18 -2 48 -7 67 -10 19 -4 45 -8 57 -10 13 -2 27 -6 33 -10 5
-3 10 -1 10 5 0 6 5 8 11 4 15 -9 80 -16 171 -18 43 0 78 -4 78 -8 0 -4 11 -3
25 2 15 6 27 6 30 0 3 -6 15 -6 30 0 17 6 25 6 25 -1 0 -6 5 -7 11 -3 6 3 50
8 98 10 88 4 169 10 231 18 19 3 53 7 75 10 22 2 51 7 65 10 14 3 36 8 50 10
38 7 64 13 106 25 21 6 40 8 43 6 2 -3 10 0 18 7 7 6 16 8 20 5 3 -4 11 -3 17
2 7 6 23 12 36 15 14 2 59 16 100 30 41 15 82 28 90 30 8 2 26 9 40 14 14 5
28 10 33 10 4 1 20 8 35 16 15 8 68 33 117 56 117 53 296 153 363 202 28 21
52 36 52 33 0 -2 8 2 18 10 9 7 62 49 117 91 114 88 132 104 264 234 135 133
286 313 355 425 10 17 30 46 45 65 14 19 26 39 27 45 1 6 14 28 29 50 33 49
158 295 149 295 -4 0 -2 6 4 13 8 10 36 77 88 212 9 24 8 22 18 65 5 19 12 40
16 45 5 6 8 13 8 18 1 15 15 72 21 82 3 6 6 19 7 30 0 11 4 30 8 42 8 24 15
55 21 93 2 14 7 36 10 50 6 28 7 33 31 215 9 69 12 487 4 550 -5 33 -11 85
-14 115 -6 53 -10 80 -21 138 -3 15 -7 36 -9 47 -4 24 -17 86 -20 100 -2 6 -6
24 -10 40 -24 97 -86 290 -113 355 -8 19 -19 44 -23 55 -23 61 -129 272 -172
345 -54 90 -156 248 -173 266 -5 6 -21 26 -35 44 -14 18 -29 38 -35 44 -5 6
-35 41 -65 76 -69 82 -216 229 -300 300 -36 30 -67 57 -70 60 -19 20 -142 110
-150 110 -5 0 -10 3 -10 8 0 4 -30 25 -66 47 -36 22 -71 45 -78 50 -28 23
-271 150 -356 186 -30 13 -58 28 -62 33 -4 6 -8 8 -8 3 0 -4 -17 0 -37 9 -21
8 -45 17 -53 19 -8 2 -35 12 -60 21 -25 9 -54 18 -65 20 -11 2 -29 8 -40 13
-17 8 -110 34 -170 46 -11 3 -40 9 -65 15 -102 23 -239 42 -251 34 -5 -3 -9
-1 -9 3 0 5 -15 9 -32 10 -18 1 -67 3 -108 5 -41 2 -81 7 -87 11 -7 5 -13 5
-13 0 0 -4 -13 -8 -30 -8 -16 0 -30 2 -30 5 0 7 -81 3 -87 -4 -3 -3 -14 -1
-24 5 -11 5 -19 6 -19 2z m270 -1647 c19 -3 47 -8 63 -11 69 -13 144 -33 197
-53 8 -3 18 -4 23 -4 4 1 7 -2 7 -8 0 -5 7 -10 17 -10 9 0 37 -12 62 -27 25
-15 47 -25 47 -22 1 2 34 -17 73 -43 40 -27 74 -48 77 -48 8 0 69 -55 149
-135 87 -87 149 -168 203 -267 37 -66 104 -218 97 -218 -3 0 1 -12 7 -27 17
-43 45 -184 44 -220 -1 -18 2 -33 5 -33 4 0 6 -57 4 -127 -7 -330 -129 -626
-350 -848 -44 -44 -93 -91 -110 -105 -46 -39 -188 -130 -202 -130 -7 0 -13 -4
-13 -10 0 -5 -5 -10 -11 -10 -5 0 -34 -11 -62 -24 -47 -21 -88 -37 -109 -42
-5 -1 -10 -3 -13 -4 -3 -1 -9 -4 -15 -5 -5 -1 -12 -4 -15 -5 -6 -3 -9 -4 -60
-14 -65 -13 -88 -17 -135 -25 -54 -9 -243 -6 -320 4 -30 4 -63 8 -72 9 -10 1
-21 5 -24 9 -4 4 -16 7 -26 7 -37 0 -155 43 -263 96 -107 53 -200 115 -279
188 -21 20 -42 36 -47 36 -5 0 -9 3 -9 8 0 4 -21 30 -46 57 -84 94 -154 209
-230 380 -16 38 -44 129 -49 164 -5 32 -13 66 -15 66 -6 0 -13 129 -13 230 1
99 7 190 13 190 1 0 3 14 6 30 5 37 12 70 14 70 1 0 3 8 5 17 17 88 98 265
172 377 70 104 221 257 324 328 107 73 299 161 387 178 9 2 17 4 17 5 0 2 33
9 70 14 17 3 30 5 30 6 0 1 20 3 44 5 24 2 45 6 48 8 6 6 244 1 283 -7z"/>
</g>
</svg>
